<svg width="12" height="14" viewBox="0 0 12 14" fill="none" xmlns="http://www.w3.org/2000/svg">
<path d="M0.923077 0.933333C0.678262 0.933333 0.443473 1.03167 0.270363 1.2067C0.0972524 1.38173 0 1.61913 0 1.86667V2.8C0 3.04754 0.0972524 3.28493 0.270363 3.45997C0.443473 3.635 0.678262 3.73333 0.923077 3.73333H1.38462V12.1333C1.38462 12.6284 1.57912 13.1032 1.92534 13.4533C2.27156 13.8033 2.74114 14 3.23077 14H8.76923C9.25886 14 9.72844 13.8033 10.0747 13.4533C10.4209 13.1032 10.6154 12.6284 10.6154 12.1333V3.73333H11.0769C11.3217 3.73333 11.5565 3.635 11.7296 3.45997C11.9027 3.28493 12 3.04754 12 2.8V1.86667C12 1.61913 11.9027 1.38173 11.7296 1.2067C11.5565 1.03167 11.3217 0.933333 11.0769 0.933333H7.84615C7.84615 0.685798 7.7489 0.448401 7.57579 0.273367C7.40268 0.0983331 7.16789 0 6.92308 0L5.07692 0C4.83211 0 4.59732 0.0983331 4.42421 0.273367C4.2511 0.448401 4.15385 0.685798 4.15385 0.933333H0.923077ZM3.69231 4.66667C3.81472 4.66667 3.93211 4.71583 4.01866 4.80335C4.10522 4.89087 4.15385 5.00957 4.15385 5.13333V11.6667C4.15385 11.7904 4.10522 11.9091 4.01866 11.9967C3.93211 12.0842 3.81472 12.1333 3.69231 12.1333C3.5699 12.1333 3.45251 12.0842 3.36595 11.9967C3.2794 11.9091 3.23077 11.7904 3.23077 11.6667V5.13333C3.23077 5.00957 3.2794 4.89087 3.36595 4.80335C3.45251 4.71583 3.5699 4.66667 3.69231 4.66667ZM6 4.66667C6.12241 4.66667 6.2398 4.71583 6.32636 4.80335C6.41291 4.89087 6.46154 5.00957 6.46154 5.13333V11.6667C6.46154 11.7904 6.41291 11.9091 6.32636 11.9967C6.2398 12.0842 6.12241 12.1333 6 12.1333C5.87759 12.1333 5.7602 12.0842 5.67364 11.9967C5.58709 11.9091 5.53846 11.7904 5.53846 11.6667V5.13333C5.53846 5.00957 5.58709 4.89087 5.67364 4.80335C5.7602 4.71583 5.87759 4.66667 6 4.66667ZM8.76923 5.13333V11.6667C8.76923 11.7904 8.7206 11.9091 8.63405 11.9967C8.54749 12.0842 8.4301 12.1333 8.30769 12.1333C8.18528 12.1333 8.06789 12.0842 7.98134 11.9967C7.89478 11.9091 7.84615 11.7904 7.84615 11.6667V5.13333C7.84615 5.00957 7.89478 4.89087 7.98134 4.80335C8.06789 4.71583 8.18528 4.66667 8.30769 4.66667C8.4301 4.66667 8.54749 4.71583 8.63405 4.80335C8.7206 4.89087 8.76923 5.00957 8.76923 5.13333Z" fill="white"/>
</svg>
