<?xml version="1.0" standalone="no"?>
<!DOCTYPE svg PUBLIC "-//W3C//DTD SVG 20010904//EN"
 "http://www.w3.org/TR/2001/REC-SVG-20010904/DTD/svg10.dtd">
<svg version="1.0" xmlns="http://www.w3.org/2000/svg"
 width="282.000000pt" height="282.000000pt" viewBox="0 0 282.000000 282.000000"
 preserveAspectRatio="xMidYMid meet">
<metadata>
Created by potrace 1.14, written by Peter Selinger 2001-2017
</metadata>
<g transform="translate(0.000000,282.000000) scale(0.100000,-0.100000)"
fill="#000000" stroke="none">
<path d="M2625 2801 c-45 -20 -130 -87 -224 -176 -148 -138 -512 -511 -668
-681 -24 -28 -165 -180 -283 -307 -30 -32 -61 -67 -70 -76 -8 -10 -49 -56 -90
-101 -41 -46 -79 -88 -85 -94 -5 -7 -32 -36 -60 -66 -27 -31 -84 -93 -125
-139 -93 -105 -173 -189 -167 -176 3 6 42 87 87 180 46 94 118 242 160 330 43
88 125 257 182 375 255 522 238 480 218 536 -14 39 -54 66 -95 66 -92 0 -571
-280 -821 -480 -198 -157 -345 -323 -422 -477 -34 -68 -104 -281 -122 -369
-37 -181 -48 -420 -28 -586 23 -194 107 -482 154 -530 24 -24 29 -25 152 -25
191 0 330 18 528 69 298 75 602 224 819 399 75 61 234 223 297 302 132 165
297 455 317 557 10 47 9 62 -3 93 -18 43 -50 71 -88 80 -16 4 -28 11 -28 16 0
30 181 335 408 687 241 374 283 474 230 552 -42 61 -99 75 -173 41z m-373
-678 c-259 -410 -360 -618 -348 -713 2 -14 4 -30 5 -37 2 -22 61 -81 86 -87
14 -4 25 -10 25 -14 0 -14 -147 -249 -203 -324 -206 -279 -516 -497 -875 -617
-68 -22 -134 -43 -145 -45 -64 -14 -184 -37 -211 -41 -17 -3 -44 -8 -60 -11
-23 -5 -27 -3 -20 9 8 12 81 101 119 141 6 6 41 47 80 91 38 44 74 85 80 91 5
6 39 44 75 84 36 40 70 78 75 84 6 6 44 49 85 96 41 47 80 90 85 96 28 31 162
179 175 195 13 14 141 156 175 193 16 17 199 219 210 232 6 6 57 62 115 124
58 62 118 127 134 144 15 17 89 96 165 175 75 79 156 165 181 192 25 26 48 48
52 48 4 1 -23 -47 -60 -106z m-1213 -249 c-132 -272 -244 -503 -344 -709 -40
-82 -114 -235 -165 -340 -51 -104 -126 -259 -166 -342 -40 -84 -75 -153 -78
-153 -6 0 -23 61 -32 115 -3 22 -8 43 -10 46 -25 41 -25 426 1 549 2 14 10 50
16 80 18 88 68 237 102 303 90 174 285 363 567 548 135 89 214 137 218 134 1
-1 -48 -105 -109 -231z"/>
</g>
</svg>
